<svg width="32" height="12" viewBox="0 0 32 12" fill="none" xmlns="http://www.w3.org/2000/svg">
<path d="M11.0427 2.89181L9.84871 5.78429L10.3505 2.89181H9.0441L8.2135 9.04043H9.62377L12.3837 2.89181H11.0427V2.89181ZM12.9459 6.44398H14.0793L14.4081 5.35297H13.2747L13.6813 3.99976H14.8407L15.1781 2.89181H12.7037L10.8522 9.04045H13.2834L13.716 7.87331H12.5133L12.9459 6.44398ZM5.55903 10.2998C4.87964 10.2998 4.24001 10.1315 3.68042 9.83484L3.34691 10.5088C4.00729 10.854 4.76007 11.0495 5.55903 11.0495C7.06919 11.0495 8.41402 10.3509 9.28189 9.26293H8.25088C7.54213 9.90655 6.59717 10.2998 5.55903 10.2998ZM6.39681 7.96903V8.60432L7.99575 7.40431L6.44839 5.98236V6.5975H4.79782L6.44839 2.76554V5.58907L7.7849 6.82487L7.81811 0.314941H6.35557L1.01204 11.1015L2.78638 11.1355L4.22016 7.96903H6.39681V7.96903ZM2.10136 8.31592C1.76828 7.7405 1.5779 7.074 1.5779 6.36351C1.5779 4.38462 3.055 2.74698 4.97854 2.46912L5.36861 1.6817C2.83942 1.78058 0.81958 3.83871 0.81958 6.36353C0.81958 7.37686 1.14495 8.31508 1.69797 9.08167L2.10136 8.31592V8.31592ZM7.78229 9.04045V7.87888L6.3952 9.04045H7.78229V9.04045ZM27.5066 6.1226C27.8268 6.1226 28.0084 5.93653 28.0603 5.75893L28.6919 3.66992C28.8131 3.26396 28.6314 2.89183 28.069 2.89183H25.6897L23.8382 9.04045H25.1447L25.932 6.41862H26.3646C26.5203 6.41862 26.5376 6.52858 26.503 6.63008L25.7763 9.04047H27.0827L27.7575 6.79922C27.896 6.35941 27.7056 6.15643 27.5066 6.1226ZM27.299 4.13509L26.9529 5.27685C26.8924 5.46292 26.7799 5.51366 26.6501 5.51366H26.2002L26.6934 3.88135H27.1C27.299 3.88135 27.3509 3.97438 27.299 4.13509V4.13509ZM17.4621 2.89181L16.744 5.26838L16.7007 2.89181H15.5846L13.7331 9.04043H14.9617L15.7144 6.58773L15.8269 9.04043H16.8738L18.7253 2.89181H17.4621V2.89181ZM30.5 3.99976H31.6421L31.9795 2.89181H29.9637C29.6522 2.89181 29.3407 2.97639 29.1936 3.40773L28.4755 5.79274C28.3458 6.24099 28.4755 6.53699 29.0206 6.53699H29.7128C29.7906 6.53699 29.7906 6.57083 29.7733 6.62159L29.4705 7.66184C29.4186 7.81408 29.384 7.8733 29.1417 7.8733H28.0516L27.6969 9.04043H29.8339C30.1021 9.04043 30.3876 8.91357 30.4568 8.66829L31.1749 6.28327C31.3566 5.68279 31.0624 5.42907 30.5952 5.42907H29.8944L30.2664 4.17736C30.3097 4.04204 30.4049 3.99976 30.5 3.99976V3.99976ZM20.1441 5.35297L19.8153 6.44398H20.0835L19.6077 8.01708H19.1664C18.9934 8.01708 18.9155 7.94942 18.9674 7.77182L20.0489 4.18581C20.0922 4.03357 20.1614 3.99974 20.2998 3.99974H21.5716L21.9091 2.8918H19.824C19.4087 2.8918 19.1232 3.0102 18.9847 3.4669L17.6523 7.89866C17.4101 8.71058 17.9032 9.04041 18.4916 9.04041H19.2962L19.1578 9.52249L20.6113 8.8036L21.6495 5.35291H20.1441V5.35297ZM23.051 6.44398H24.1844L24.5132 5.35297H23.3798L23.7865 3.99976H24.9458L25.2832 2.89181H22.8088L20.9573 9.04043H23.3885L23.8211 7.8733H22.6184L23.051 6.44398Z" fill="white"/>
</svg>
