<svg width="87" height="89" viewBox="0 0 87 89" fill="none" xmlns="http://www.w3.org/2000/svg">
<path opacity="0.15" d="M82.9428 70.7501C89.4047 40.2661 84.1439 20.16 80.7791 13.9961L80.7668 13.9736L80.7569 13.95C79.3862 10.6824 76.2274 6.16344 71.2307 3.28007C66.5343 0.569983 60.1809 -0.715685 52.0815 1.89225L52.0864 1.90679C22.5642 11.8805 7.94519 26.6525 4.35617 32.6886L4.34306 32.7107L4.32777 32.7313C2.21474 35.5757 -0.0638587 40.5964 0.00136924 46.3649C0.0627894 51.7968 2.20178 57.9311 8.60024 63.5797L8.60305 63.5764C32.221 83.3741 52.3343 88.0915 59.3353 88.0033L59.3608 88.0029L59.3862 88.0052C62.9007 88.3202 68.364 87.6494 73.2708 84.6093C77.44 82.026 81.2332 77.7171 83.0859 70.7804L82.9428 70.7501Z" fill="#FCF9FE"/>
</svg>
